<svg width="172" height="170" viewBox="0 0 172 170" fill="none" xmlns="http://www.w3.org/2000/svg">
<g filter="url(#filter0_d_2_91)">
<path d="M82.7852 0C128.348 0.000261957 165.285 36.9367 165.285 82.5C165.285 128.063 128.348 165 82.7852 165C37.2217 165 0.285156 128.063 0.285156 82.5C0.285156 36.9365 37.2217 0 82.7852 0ZM63.3701 28.9053C50.5019 28.9053 40.0342 37.9045 40.0342 48.9629C40.0342 55.9682 44.2355 62.1443 50.5859 65.7314C44.2355 69.3185 40.0342 75.4947 40.0342 82.5C40.0342 89.5056 44.2361 95.6815 50.5869 99.2686C44.233 102.855 40.0295 109.033 40.0293 116.041C40.0293 127.099 50.5585 136.095 63.4941 136.095C76.5703 136.095 87.209 127.001 87.209 115.822V102.554H87.2148V97.335C91.3612 100.575 96.8661 102.554 102.899 102.554H103.409C116.277 102.554 126.744 93.5584 126.744 82.5C126.744 75.4938 122.542 69.3174 116.19 65.7305C122.542 62.1423 126.744 55.9649 126.744 48.959C126.744 37.9006 116.277 28.9053 103.409 28.9053H63.3701ZM79.5752 102.554V115.818C79.5751 123.375 72.361 129.52 63.5 129.521C54.7739 129.521 47.6798 123.473 47.6797 116.037C47.6852 112.462 49.3399 109.035 52.2812 106.508C55.2226 103.98 59.2105 102.558 63.3701 102.554H79.5752ZM79.5693 69.0166V82.1523C79.567 82.268 79.5645 82.3839 79.5645 82.5C79.5645 82.6076 79.5674 82.715 79.5693 82.8223V95.9834H63.3701C54.722 95.9834 47.6797 89.9318 47.6797 82.5C47.6797 75.0682 54.7168 69.0166 63.3701 69.0166H79.5693ZM103.409 69.0166C112.057 69.0166 119.104 75.0682 119.104 82.5C119.104 89.9318 112.067 95.9834 103.414 95.9834H102.905C94.2571 95.9834 87.2148 89.9318 87.2148 82.5C87.2148 75.0682 94.2519 69.0166 102.905 69.0166H103.409ZM103.409 35.4795C112.057 35.4795 119.1 41.5311 119.1 48.9629C119.1 56.3947 112.062 62.4462 103.409 62.4463H87.2148V35.4795H103.409ZM79.5645 35.4746V62.4463H63.3701C54.7169 62.4463 47.68 56.3906 47.6797 48.959C47.6797 41.5272 54.7168 35.4746 63.3701 35.4746H79.5645Z" fill="white"/>
</g>
<defs>
<filter id="filter0_d_2_91" x="0.285156" y="0" width="171" height="170" filterUnits="userSpaceOnUse" color-interpolation-filters="sRGB">
<feFlood flood-opacity="0" result="BackgroundImageFix"/>
<feColorMatrix in="SourceAlpha" type="matrix" values="0 0 0 0 0 0 0 0 0 0 0 0 0 0 0 0 0 0 127 0" result="hardAlpha"/>
<feOffset dx="6" dy="5"/>
<feComposite in2="hardAlpha" operator="out"/>
<feColorMatrix type="matrix" values="0 0 0 0 0 0 0 0 0 0 0 0 0 0 0 0 0 0 0.3 0"/>
<feBlend mode="normal" in2="BackgroundImageFix" result="effect1_dropShadow_2_91"/>
<feBlend mode="normal" in="SourceGraphic" in2="effect1_dropShadow_2_91" result="shape"/>
</filter>
</defs>
</svg>
