<svg width="171" height="170" viewBox="0 0 171 170" fill="none" xmlns="http://www.w3.org/2000/svg">
<g filter="url(#filter0_d_2_55)">
<path d="M82.5092 7.09046e-06C36.9227 -0.018928 0 37.889 0 84.6775C0 121.677 23.0974 153.128 55.2642 164.678C59.5961 165.795 58.9325 162.633 58.9325 160.475V145.8C33.918 148.811 32.9041 131.807 31.2267 128.967C27.8349 123.021 19.8162 121.506 22.2126 118.666C27.9086 115.655 33.7152 119.423 40.4435 129.629C45.31 137.033 54.8034 135.783 59.6146 134.552C60.6653 130.103 62.9142 126.126 66.0111 123.04C40.0933 118.268 29.2911 102.022 29.2911 82.7083C29.2911 73.3354 32.2958 64.72 38.1946 57.7708C34.4341 46.3151 38.5449 36.5068 39.0979 35.0488C49.8078 34.0642 60.9418 42.9258 61.8082 43.6264C67.8913 41.9411 74.8408 41.0512 82.6198 41.0512C90.4357 41.0512 97.4036 41.979 103.542 43.6832C105.625 42.0547 115.948 34.4429 125.902 35.3707C126.437 36.8287 130.455 46.4098 126.916 57.714C132.889 64.6821 135.93 73.3733 135.93 82.7651C135.93 102.117 125.054 118.382 99.0627 123.078C101.289 125.327 103.057 128.009 104.262 130.967C105.468 133.926 106.088 137.101 106.086 140.309V161.611C106.233 163.315 106.086 165 108.851 165C141.497 153.696 165 122.017 165 84.6965C165 37.889 128.059 7.09046e-06 82.5092 7.09046e-06Z" fill="white"/>
</g>
<defs>
<filter id="filter0_d_2_55" x="0" y="0" width="171" height="170" filterUnits="userSpaceOnUse" color-interpolation-filters="sRGB">
<feFlood flood-opacity="0" result="BackgroundImageFix"/>
<feColorMatrix in="SourceAlpha" type="matrix" values="0 0 0 0 0 0 0 0 0 0 0 0 0 0 0 0 0 0 127 0" result="hardAlpha"/>
<feOffset dx="6" dy="5"/>
<feComposite in2="hardAlpha" operator="out"/>
<feColorMatrix type="matrix" values="0 0 0 0 0 0 0 0 0 0 0 0 0 0 0 0 0 0 0.3 0"/>
<feBlend mode="normal" in2="BackgroundImageFix" result="effect1_dropShadow_2_55"/>
<feBlend mode="normal" in="SourceGraphic" in2="effect1_dropShadow_2_55" result="shape"/>
</filter>
</defs>
</svg>
