<svg width="171" height="170" viewBox="0 0 171 170" fill="none" xmlns="http://www.w3.org/2000/svg">
<g filter="url(#filter0_d_2_15)">
<path fill-rule="evenodd" clip-rule="evenodd" d="M82.6031 87.3727L79.8755 95.8289H75.8123L82.6031 74.6522V40.9664H120.471L113.267 120.321L82.6031 128.581V87.3727ZM82.5 165C36.9342 165 0 128.066 0 82.5C0 36.9342 36.9342 0 82.5 0C128.066 0 165 36.9342 165 82.5C165 128.066 128.066 165 82.5 165ZM44.5294 126.168L82.3969 136.641L120.471 126.168L128.906 33.5156H36.0938L44.5294 126.168ZM71.1511 91.1419L52.9702 83.7581V80.7056L71.1511 73.3167V77.1427L58.4203 82.2473L71.1562 87.3211L71.1511 91.1419ZM112.056 83.7581V80.7056L93.8695 73.3167V77.1427L106.605 82.2319L93.8695 87.3211V91.1419L112.056 83.7581ZM82.6031 87.3727L88.275 69.7692H84.1706L82.6031 74.6522V87.3727Z" fill="white"/>
</g>
<defs>
<filter id="filter0_d_2_15" x="0" y="0" width="171" height="170" filterUnits="userSpaceOnUse" color-interpolation-filters="sRGB">
<feFlood flood-opacity="0" result="BackgroundImageFix"/>
<feColorMatrix in="SourceAlpha" type="matrix" values="0 0 0 0 0 0 0 0 0 0 0 0 0 0 0 0 0 0 127 0" result="hardAlpha"/>
<feOffset dx="6" dy="5"/>
<feComposite in2="hardAlpha" operator="out"/>
<feColorMatrix type="matrix" values="0 0 0 0 0 0 0 0 0 0 0 0 0 0 0 0 0 0 0.3 0"/>
<feBlend mode="normal" in2="BackgroundImageFix" result="effect1_dropShadow_2_15"/>
<feBlend mode="normal" in="SourceGraphic" in2="effect1_dropShadow_2_15" result="shape"/>
</filter>
</defs>
</svg>
