<svg width="172" height="170" viewBox="0 0 172 170" fill="none" xmlns="http://www.w3.org/2000/svg">
<g filter="url(#filter0_d_2_85)">
<path d="M83.4707 0C129.034 0 165.971 36.9365 165.971 82.5C165.971 128.063 129.034 165 83.4707 165C37.9073 165 0.970703 128.063 0.970703 82.5C0.970703 36.9365 37.9073 5.39406e-05 83.4707 0ZM84.0928 24.0879C82.4426 24.088 80.8944 24.511 79.5947 25.2363L36.7783 49.9775L36.7344 50.002C34.0763 51.5696 32.29 54.4562 32.2852 57.7666V107.185C32.2852 110.505 34.0667 113.401 36.7734 114.998L47.9219 121.415C50.7161 123.143 54.0118 124.141 57.541 124.141C57.6528 124.141 57.765 124.136 57.8623 124.136C65.9145 124.136 70.54 119.263 70.54 110.768V61.9775C70.54 61.2913 69.9802 60.7414 69.2988 60.7412H63.8555C63.174 60.7413 62.6192 61.2961 62.6191 61.9775V110.768C62.6191 114.531 58.7242 118.28 52.3613 115.096L40.6289 108.319L40.624 108.314C40.2248 108.091 39.957 107.667 39.957 107.175V57.7666C39.9619 57.2701 40.2298 56.8372 40.6338 56.5986L83.4219 31.9014L83.417 31.9062C83.6164 31.7945 83.8447 31.7306 84.083 31.7305C84.3214 31.7305 84.5504 31.7944 84.7402 31.9014L127.538 56.5938L127.543 56.5986C127.937 56.8372 128.2 57.2701 128.205 57.7617V107.17C128.205 107.657 127.947 108.086 127.553 108.329L84.7422 133.043C84.5444 133.148 84.3185 133.211 84.0781 133.211C83.835 133.211 83.6067 133.147 83.417 133.045L72.4336 126.526L72.4385 126.531C72.2633 126.414 72.0539 126.347 71.8301 126.347C71.6703 126.347 71.5196 126.378 71.3867 126.438C71.4206 126.417 71.4554 126.397 71.4893 126.376L71.3721 126.443C71.3768 126.441 71.3819 126.44 71.3867 126.438C69.4385 127.64 67.3283 128.623 64.9072 129.384C64.2062 129.632 63.1646 130.051 65.2969 131.249L79.5947 139.705L79.5508 139.681C80.875 140.46 82.419 140.902 84.0693 140.902H84.083L84.0742 140.912H84.1074C85.7626 140.912 87.3114 140.469 88.5967 139.715L131.398 114.993L131.442 114.969C134.105 113.391 135.892 110.495 135.896 107.18V57.7666C135.887 54.4562 134.105 51.5695 131.403 49.9775L88.5918 25.2363L88.6406 25.2607C87.297 24.5159 85.7431 24.0879 84.0928 24.0879ZM95.5771 59.4268C83.3872 59.4269 76.1045 64.5825 76.1045 73.2188C76.1046 82.5901 83.3485 85.1705 95.0615 86.3389C109.077 87.7117 110.163 89.7563 110.163 92.5166C110.163 97.3021 106.331 99.3418 97.3105 99.3418C85.9821 99.3418 83.4897 96.4939 82.6572 90.8564C82.5599 90.2675 82.0439 89.8146 81.4258 89.8145H75.8809C75.1994 89.8145 74.6487 90.3645 74.6484 91.0459V91.0508C74.6484 98.2705 78.5774 106.868 97.3105 106.868L97.3252 106.858C110.893 106.858 118.668 101.513 118.688 92.1709C118.688 82.926 112.436 80.4675 99.2822 78.7246C85.9875 76.9672 84.6339 76.0617 84.6338 72.9463C84.6338 70.3807 85.7776 66.9483 95.626 66.9482C104.418 66.9482 107.661 68.8419 108.995 74.7715V74.7812C109.117 75.3313 109.608 75.7451 110.192 75.7451H115.708C116.39 75.7451 116.944 75.1952 116.944 74.5088C116.944 74.4747 116.944 74.4354 116.939 74.4014C116.083 64.1878 109.296 59.4268 95.5771 59.4268Z" fill="white"/>
</g>
<defs>
<filter id="filter0_d_2_85" x="0.970703" y="0" width="171" height="170" filterUnits="userSpaceOnUse" color-interpolation-filters="sRGB">
<feFlood flood-opacity="0" result="BackgroundImageFix"/>
<feColorMatrix in="SourceAlpha" type="matrix" values="0 0 0 0 0 0 0 0 0 0 0 0 0 0 0 0 0 0 127 0" result="hardAlpha"/>
<feOffset dx="6" dy="5"/>
<feComposite in2="hardAlpha" operator="out"/>
<feColorMatrix type="matrix" values="0 0 0 0 0 0 0 0 0 0 0 0 0 0 0 0 0 0 0.3 0"/>
<feBlend mode="normal" in2="BackgroundImageFix" result="effect1_dropShadow_2_85"/>
<feBlend mode="normal" in="SourceGraphic" in2="effect1_dropShadow_2_85" result="shape"/>
</filter>
</defs>
</svg>
