<svg width="172" height="170" viewBox="0 0 172 170" fill="none" xmlns="http://www.w3.org/2000/svg">
<g filter="url(#filter0_d_2_88)">
<path d="M83.1279 0C128.691 0.000104016 165.628 36.9366 165.628 82.5C165.628 128.063 128.691 165 83.1279 165C37.5644 165 0.62793 128.063 0.62793 82.5C0.62793 36.9365 37.5644 0 83.1279 0ZM83.7295 37.8613C71.8726 24.9219 60.7006 19.9654 53.6279 24.5674C46.3892 29.2441 44.6849 42.248 48.8359 60.4697C32.707 65.5542 23.5108 73.724 23.5107 83.0781C23.5107 92.4244 32.699 100.598 48.8281 105.684C44.6856 123.895 46.3907 136.906 53.6279 141.582C55.4703 142.754 57.5571 143.353 59.6738 143.319C66.3604 143.319 74.8426 138.004 83.7207 128.281C92.6037 137.999 101.087 143.319 107.785 143.319C109.902 143.355 111.99 142.756 113.832 141.582C121.058 136.906 122.756 123.889 118.629 105.684C134.76 100.599 143.949 92.4313 143.949 83.0781C143.949 73.7185 134.765 65.5494 118.63 60.4648C122.774 42.252 121.064 29.25 113.832 24.5674C106.748 19.9719 95.5806 24.9281 83.7295 37.8613ZM113.76 107.056C117.201 122.216 116.317 133.468 111.329 136.7C110.33 137.342 109.139 137.681 107.785 137.681C102.479 137.68 95.0731 132.818 87.2402 124.251C90.9438 119.731 94.3759 114.94 97.5146 109.909H97.5225L97.5352 109.888C102.995 109.353 108.408 108.394 113.76 107.056ZM53.7002 107.062C59.0438 108.407 64.4606 109.352 69.915 109.895L69.9199 109.902H69.9238C73.0798 114.929 76.521 119.722 80.2256 124.251C70.3953 134.982 61.0943 139.885 56.1309 136.707C51.1495 133.475 50.271 122.223 53.7002 107.062ZM90.9834 110.411C88.7017 113.798 86.2779 117.062 83.7197 120.191C81.1601 117.062 78.7371 113.797 76.459 110.411C78.9083 110.544 81.3392 110.612 83.7334 110.612C86.1177 110.612 88.542 110.543 90.9834 110.411ZM72.6992 61.6562C80.0421 61.0206 87.4178 61.0206 94.7607 61.6562C98.916 68.4699 102.601 75.6317 105.782 83.0781C102.589 90.5179 98.9052 97.6787 94.7607 104.5C87.3368 105.129 80.1292 105.129 72.6992 104.5C68.5613 97.674 64.8776 90.5138 61.6777 83.0781C64.8558 75.6296 68.5405 68.4674 72.6992 61.6562ZM108.461 89.6895C109.933 93.594 111.237 97.576 112.37 101.622C108.681 102.545 104.955 103.265 101.205 103.783C103.826 99.2205 106.247 94.5169 108.461 89.6895ZM59 89.6855C60.1063 92.1014 61.2609 94.4895 62.4658 96.8457C63.6759 99.1883 64.9363 101.497 66.2422 103.773C62.3498 103.239 58.6205 102.524 55.0889 101.636C56.2177 97.5842 57.5244 93.5967 59 89.6855ZM50.1924 65.8896C51.8237 71.7616 53.8043 77.5038 56.1191 83.0781C53.821 88.643 51.8348 94.3837 50.1924 100.253C36.7766 96.0132 28.5469 89.5289 28.5469 83.0781C28.547 76.6139 36.7826 70.1361 50.1924 65.8896ZM117.268 65.8896C130.689 70.1428 138.919 76.6139 138.919 83.0781C138.919 89.5289 130.683 96.0132 117.268 100.253C115.74 94.6978 113.738 88.9403 111.333 83.0879L111.335 83.085L111.33 83.0742C113.643 77.4989 115.627 71.7585 117.268 65.8896ZM83.7334 71.0352C77.8025 71.0352 72.9941 76.4394 72.9941 83.1055C72.9942 89.7714 77.8025 95.1748 83.7334 95.1748C89.664 95.1745 94.4716 89.7712 94.4717 83.1055C94.4717 76.4396 89.6641 71.0354 83.7334 71.0352ZM101.184 62.3467C104.941 62.8674 108.674 63.5914 112.37 64.5186C111.235 68.5712 109.931 72.5608 108.457 76.4697C106.235 71.6338 103.808 66.9208 101.184 62.3467ZM66.2578 62.3574C64.9388 64.6578 63.6695 66.981 62.4658 69.3047C61.2588 71.6603 60.1039 74.0473 58.998 76.4629C57.5256 72.5571 56.221 68.5735 55.0898 64.5254C58.78 63.602 62.507 62.8792 66.2578 62.3574ZM59.6738 28.4766C64.9861 28.4766 72.3865 33.3312 80.2256 41.8984C76.5179 46.4282 73.0755 51.2235 69.9199 56.2539C64.4693 56.7881 59.0606 57.7412 53.7002 59.0732C50.2711 43.9133 51.1495 32.6824 56.1309 29.457C57.1355 28.8079 58.3264 28.4766 59.6738 28.4766ZM87.2402 41.8984C97.0406 31.1606 106.372 26.2248 111.329 29.4502C116.316 32.6824 117.195 43.9134 113.76 59.0732C108.706 57.7953 103.268 56.8287 97.5283 56.2539C94.3879 51.2163 90.9462 46.4289 87.2402 41.8984ZM83.7363 45.9717C86.2952 49.0943 88.7178 52.3535 90.9971 55.7373C86.1606 55.4758 81.316 55.4756 76.4795 55.7363C78.7588 52.3541 81.1799 49.0952 83.7363 45.9717Z" fill="white"/>
</g>
<defs>
<filter id="filter0_d_2_88" x="0.62793" y="0" width="171" height="170" filterUnits="userSpaceOnUse" color-interpolation-filters="sRGB">
<feFlood flood-opacity="0" result="BackgroundImageFix"/>
<feColorMatrix in="SourceAlpha" type="matrix" values="0 0 0 0 0 0 0 0 0 0 0 0 0 0 0 0 0 0 127 0" result="hardAlpha"/>
<feOffset dx="6" dy="5"/>
<feComposite in2="hardAlpha" operator="out"/>
<feColorMatrix type="matrix" values="0 0 0 0 0 0 0 0 0 0 0 0 0 0 0 0 0 0 0.3 0"/>
<feBlend mode="normal" in2="BackgroundImageFix" result="effect1_dropShadow_2_88"/>
<feBlend mode="normal" in="SourceGraphic" in2="effect1_dropShadow_2_88" result="shape"/>
</filter>
</defs>
</svg>
