<svg width="171" height="170" viewBox="0 0 171 170" fill="none" xmlns="http://www.w3.org/2000/svg">
<g filter="url(#filter0_d_2_5)">
<path d="M165 82.5C165 104.38 156.308 125.365 140.836 140.836C125.365 156.308 104.38 165 82.5 165C60.6196 165 39.6354 156.308 24.1637 140.836C8.69194 125.365 0 104.38 0 82.5C0 60.6196 8.69194 39.6354 24.1637 24.1637C39.6354 8.69194 60.6196 0 82.5 0C104.38 0 125.365 8.69194 140.836 24.1637C156.308 39.6354 165 60.6196 165 82.5ZM85.4597 60.9056C77.4366 64.2469 61.3903 71.1562 37.3416 81.6338C33.4434 83.1806 31.3913 84.7069 31.2056 86.1919C30.8962 88.6978 34.0416 89.6878 38.3213 91.0387L40.1259 91.6059C44.3334 92.9775 50.0053 94.5759 52.9444 94.6378C55.6256 94.6997 58.6059 93.6066 61.8956 91.3378C84.3666 76.1681 95.9681 68.5059 96.69 68.3409C97.2056 68.2172 97.9275 68.0728 98.4019 68.5059C98.8866 68.9287 98.835 69.7434 98.7834 69.96C98.4741 71.2903 86.13 82.7578 79.7466 88.6978C77.7562 90.5541 76.3434 91.8638 76.0547 92.1628C75.4188 92.8126 74.7725 93.4521 74.1159 94.0809C70.1972 97.8553 67.2684 100.681 74.2706 105.301C77.6428 107.528 80.3447 109.354 83.0362 111.189C85.965 113.19 88.8937 115.18 92.6888 117.676C93.6478 118.295 94.5759 118.965 95.4731 119.604C98.8866 122.038 101.97 124.224 105.755 123.874C107.962 123.668 110.241 121.605 111.396 115.418C114.128 100.805 119.501 69.1556 120.739 56.1103C120.814 55.0259 120.769 53.9364 120.605 52.8619C120.508 51.9948 120.088 51.196 119.429 50.6241C118.491 49.9763 117.372 49.6408 116.232 49.665C113.138 49.7166 108.364 51.3769 85.4597 60.9056Z" fill="white"/>
</g>
<defs>
<filter id="filter0_d_2_5" x="0" y="0" width="171" height="170" filterUnits="userSpaceOnUse" color-interpolation-filters="sRGB">
<feFlood flood-opacity="0" result="BackgroundImageFix"/>
<feColorMatrix in="SourceAlpha" type="matrix" values="0 0 0 0 0 0 0 0 0 0 0 0 0 0 0 0 0 0 127 0" result="hardAlpha"/>
<feOffset dx="6" dy="5"/>
<feComposite in2="hardAlpha" operator="out"/>
<feColorMatrix type="matrix" values="0 0 0 0 0 0 0 0 0 0 0 0 0 0 0 0 0 0 0.3 0"/>
<feBlend mode="normal" in2="BackgroundImageFix" result="effect1_dropShadow_2_5"/>
<feBlend mode="normal" in="SourceGraphic" in2="effect1_dropShadow_2_5" result="shape"/>
</filter>
</defs>
</svg>
